<svg xmlns="http://www.w3.org/2000/svg" width="97" height="71" viewBox="0 0 97 71">
  <g fill="none" fill-rule="evenodd">
    <g fill-rule="nonzero" transform="translate(-1 -1)">
      <path fill="#DDD" d="M92.29,46.42 C94.11,44.99 88.29,39.82 85.35,38.1 C81.98,36.1 77.76,37.1 72.7,38.1 C68.3456189,38.9213925 63.9442973,36.9207918 61.7,33.1 C60.02,30.1 58.33,23.1 49.05,22.1 C43,21.45 36.88,26.41 32.7,31 C31.13,31.68 29.31,31.08 27.99,31.08 C26.31,31.08 22.93,31.08 21.24,34.08 C19.55,37.08 17.52,39.68 14.74,39.38 C11.96,39.08 10.28,38.1 6.9,38.1 C3.52,38.1 1,40.1 1,43.1 C0.990336626,43.6822768 1.10987067,44.2594555 1.35,44.79 C-0.47,46.21 5.35,51.39 8.29,53.1 C11.66,55.1 15.88,54.1 20.94,53.1 C25.2943811,52.2786075 29.6957027,54.2792082 31.94,58.1 C33.63,61.1 35.31,68.1 44.59,69.1 C50.69,69.76 56.79,64.8 60.98,60.18 C62.54,59.5 64.37,60.1 65.68,60.1 C67.37,60.1 70.74,60.1 72.43,57.1 C74.12,54.1 76.15,51.5 78.93,51.8 C81.71,52.1 83.39,53.1 86.77,53.1 C90.15,53.1 92.67,51.1 92.67,48.1 C92.6691198,47.5187903 92.5393365,46.9450112 92.29,46.42 Z"/>
      <path fill="#DDD" d="M96.91,48.41 C98.39,47.25 93.64,43.06 91.29,41.67 C88.56,40.05 85.14,40.86 81.04,41.67 C77.5197323,42.3246946 73.9662077,40.7058223 72.15,37.62 C70.79,35.19 69.42,29.52 61.9,28.71 C57,28.18 52,32.2 48.63,35.94 C47.36,36.49 45.88,36 44.82,36 C43.45,36 40.72,36 39.35,38.43 C37.98,40.86 36.35,42.97 34.08,42.72 C31.81,42.47 30.47,41.72 27.73,41.72 C24.99,41.72 23,43.29 23,45.72 C22.9918532,46.1916636 23.0874401,46.6593567 23.28,47.09 C21.81,48.24 26.55,52.43 28.9,53.82 C31.64,55.44 35.05,54.63 39.16,53.82 C42.6667489,53.1837175 46.1975935,54.8053498 48,57.88 C49.37,60.31 50.73,65.98 58.25,66.79 C63.19,67.32 68.14,63.3 71.53,59.56 C72.8,59.01 74.27,59.5 75.34,59.5 C76.7,59.5 79.44,59.5 80.8,57.06 C82.16,54.62 83.8,52.53 86.07,52.77 C88.34,53.01 89.69,53.77 92.42,53.77 C95.15,53.77 97.21,52.15 97.21,49.77 C97.2130624,49.2999256 97.110541,48.8351619 96.91,48.41 Z"/>
      <rect width="41" height="67" x="32.328" y="3.096" fill="#283E96" rx="4.69" transform="rotate(6.7 52.828 36.596)"/>
      <rect width="33.39" height="51.78" x="36.535" y="7.34" fill="#EE5180" rx="2.23" transform="rotate(6.7 53.23 33.23)"/>
      <circle cx="49.561" cy="64.418" r="3.5" fill="#B6D0FF" transform="rotate(11 49.561 64.418)"/>
    </g>
    <g fill-rule="nonzero" transform="rotate(7 -118.39 345.05)">
      <path fill="#000" fill-opacity=".4" d="M22.282804,20.3388192 C20.657804,20.3388192 19.097804,20.0788192 17.641804,19.5978192 C17.186804,19.4548192 16.679804,19.5588192 16.315804,19.9228192 L13.455804,22.7828192 C9.77680402,20.9108192 6.76080402,17.8948192 4.88880402,14.2158192 L7.74880402,11.3558192 C8.11280402,10.9918192 8.21680402,10.4848192 8.07380402,10.0298192 C7.59280402,8.57381923 7.33280402,7.01381923 7.33280402,5.38881923 C7.33280402,4.67084905 6.75077419,4.08881923 6.03280402,4.08881923 L1.48280402,4.08881923 C0.76483384,4.08881923 0.182804015,4.67084905 0.182804015,5.38881923 C0.182804015,17.5943122 10.077311,27.4888192 22.282804,27.4888192 C22.6275855,27.4888192 22.9582455,27.3518553 23.2020428,27.108058 C23.4458401,26.8642608 23.582804,26.5336007 23.582804,26.1888192 L23.582804,21.6388192 C23.582804,20.9208491 23.0007742,20.3388192 22.282804,20.3388192 L22.282804,20.3388192 Z M19.682804,14.4888192 L26.182804,7.98881923 L19.682804,1.48881923 L19.682804,5.38881923 L14.482804,5.38881923 L14.482804,10.5888192 L19.682804,10.5888192 L19.682804,14.4888192 Z"/>
      <path fill="#FFF" d="M22.1,18.85 C20.475,18.85 18.915,18.59 17.459,18.109 C17.004,17.966 16.497,18.07 16.133,18.434 L13.273,21.294 C9.594,19.422 6.578,16.406 4.706,12.727 L7.566,9.867 C7.93,9.503 8.034,8.996 7.891,8.541 C7.41,7.085 7.15,5.525 7.15,3.9 C7.15,3.18202983 6.56797017,2.6 5.85,2.6 L1.3,2.6 C0.582029825,2.6 -2.27373675e-13,3.18202983 -2.27373675e-13,3.9 C-2.27950991e-13,16.105493 9.89450703,26 22.1,26 C22.4447814,26 22.7754415,25.8630361 23.0192388,25.6192388 C23.2630361,25.3754415 23.4,25.0447814 23.4,24.7 L23.4,20.15 C23.4,19.4320298 22.8179702,18.85 22.1,18.85 L22.1,18.85 Z M19.5,13 L26,6.5 L19.5,1.8189894e-12 L19.5,3.9 L14.3,3.9 L14.3,9.1 L19.5,9.1 L19.5,13 Z"/>
    </g>
  </g>
</svg>
