<svg xmlns="http://www.w3.org/2000/svg" width="97" height="70" viewBox="0 0 97 70">
  <g fill="none" fill-rule="evenodd">
    <g fill-rule="nonzero" transform="translate(-1 -1)">
      <path fill="#DDD" d="M92.29,25.42 C94.11,23.99 88.29,18.82 85.35,17.1 C81.98,15.1 77.76,16.1 72.7,17.1 C68.3456189,17.9213925 63.9442973,15.9207918 61.7,12.1 C60.02,9.1 58.33,2.1 49.05,1.1 C43,0.45 36.88,5.41 32.7,10 C31.13,10.68 29.31,10.08 27.99,10.08 C26.31,10.08 22.93,10.08 21.24,13.08 C19.55,16.08 17.52,18.68 14.74,18.38 C11.96,18.08 10.28,17.1 6.9,17.1 C3.52,17.1 1,19.1 1,22.1 C0.990336626,22.6822768 1.10987067,23.2594555 1.35,23.79 C-0.47,25.21 5.35,30.39 8.29,32.1 C11.66,34.1 15.88,33.1 20.94,32.1 C25.2943811,31.2786075 29.6957027,33.2792082 31.94,37.1 C33.63,40.1 35.31,47.1 44.59,48.1 C50.69,48.76 56.79,43.8 60.98,39.18 C62.54,38.5 64.37,39.1 65.68,39.1 C67.37,39.1 70.74,39.1 72.43,36.1 C74.12,33.1 76.15,30.5 78.93,30.8 C81.71,31.1 83.39,32.1 86.77,32.1 C90.15,32.1 92.67,30.1 92.67,27.1 C92.6691198,26.5187903 92.5393365,25.9450112 92.29,25.42 Z"/>
      <path fill="#DDD" d="M96.91,32.41 C98.39,31.25 93.64,27.06 91.29,25.67 C88.56,24.05 85.14,24.86 81.04,25.67 C77.5197323,26.3246946 73.9662077,24.7058223 72.15,21.62 C70.79,19.19 69.42,13.52 61.9,12.71 C57,12.18 52,16.2 48.63,19.94 C47.36,20.49 45.88,20 44.82,20 C43.45,20 40.72,20 39.35,22.43 C37.98,24.86 36.35,26.97 34.08,26.72 C31.81,26.47 30.47,25.72 27.73,25.72 C24.99,25.72 23,27.29 23,29.72 C22.9918532,30.1916636 23.0874401,30.6593567 23.28,31.09 C21.81,32.24 26.55,36.43 28.9,37.82 C31.64,39.44 35.05,38.63 39.16,37.82 C42.6667489,37.1837175 46.1975935,38.8053498 48,41.88 C49.37,44.31 50.73,49.98 58.25,50.79 C63.19,51.32 68.14,47.3 71.53,43.56 C72.8,43.01 74.27,43.5 75.34,43.5 C76.7,43.5 79.44,43.5 80.8,41.06 C82.16,38.62 83.8,36.53 86.07,36.77 C88.34,37.01 89.69,37.77 92.42,37.77 C95.15,37.77 97.21,36.15 97.21,33.77 C97.2130624,33.2999256 97.110541,32.8351619 96.91,32.41 Z"/>
      <rect width="41" height="67" x="32.328" y="2.096" fill="#283E96" rx="4.69" transform="rotate(-4.3 52.828 35.596)"/>
      <rect width="33.39" height="51.78" x="35.886" y="6.325" fill="#55C99A" rx="2.23" transform="rotate(-4.3 52.58 32.215)"/>
      <circle cx="54.93" cy="63.53" r="3.5" fill="#B6D0FF"/>
    </g>
    <path fill="#000" fill-rule="nonzero" d="M13.7697004,20.0252882 L15.0197004,20.0252882 C15.7100564,20.0252882 16.2697004,20.5849323 16.2697004,21.2752882 L25.0197004,21.2752882 L25.0197004,23.7752882 L16.2697004,23.7752882 C16.2697004,24.4656442 15.7100564,25.0252882 15.0197004,25.0252882 L10.0197004,25.0252882 C9.32934449,25.0252882 8.76970042,24.4656442 8.76970042,23.7752882 L0.0197004234,23.7752882 L0.0197004234,21.2752882 L8.76970042,21.2752882 C8.76970042,20.5849323 9.32934449,20.0252882 10.0197004,20.0252882 L11.2697004,20.0252882 L11.2697004,17.5252882 L2.51970042,17.5252882 C1.82934449,17.5252882 1.26970042,16.9656442 1.26970042,16.2752882 L1.26970042,11.2752882 C1.26970042,10.5849323 1.82934449,10.0252882 2.51970042,10.0252882 L22.5197004,10.0252882 C23.2100564,10.0252882 23.7697004,10.5849323 23.7697004,11.2752882 L23.7697004,16.2752882 C23.7697004,16.9656442 23.2100564,17.5252882 22.5197004,17.5252882 L13.7697004,17.5252882 L13.7697004,20.0252882 L13.7697004,20.0252882 Z M2.51970042,0.0252882349 L22.5197004,0.0252882349 C23.2100564,0.0252882349 23.7697004,0.584932298 23.7697004,1.27528823 L23.7697004,6.27528823 C23.7697004,6.96564417 23.2100564,7.52528823 22.5197004,7.52528823 L2.51970042,7.52528823 C1.82934449,7.52528823 1.26970042,6.96564417 1.26970042,6.27528823 L1.26970042,1.27528823 C1.26970042,0.584932298 1.82934449,0.0252882349 2.51970042,0.0252882349 L2.51970042,0.0252882349 Z M8.76970042,5.02528823 L10.0197004,5.02528823 L10.0197004,2.52528823 L8.76970042,2.52528823 L8.76970042,5.02528823 L8.76970042,5.02528823 Z M8.76970042,15.0252882 L10.0197004,15.0252882 L10.0197004,12.5252882 L8.76970042,12.5252882 L8.76970042,15.0252882 L8.76970042,15.0252882 Z M3.76970042,2.52528823 L3.76970042,5.02528823 L6.26970042,5.02528823 L6.26970042,2.52528823 L3.76970042,2.52528823 L3.76970042,2.52528823 Z M3.76970042,12.5252882 L3.76970042,15.0252882 L6.26970042,15.0252882 L6.26970042,12.5252882 L3.76970042,12.5252882 Z" opacity=".396" transform="rotate(-4 318.51 -549.93)"/>
    <path fill="#FFF" fill-rule="nonzero" d="M13.7697004,20.0252882 L15.0197004,20.0252882 C15.7100564,20.0252882 16.2697004,20.5849323 16.2697004,21.2752882 L25.0197004,21.2752882 L25.0197004,23.7752882 L16.2697004,23.7752882 C16.2697004,24.4656442 15.7100564,25.0252882 15.0197004,25.0252882 L10.0197004,25.0252882 C9.32934449,25.0252882 8.76970042,24.4656442 8.76970042,23.7752882 L0.0197004234,23.7752882 L0.0197004234,21.2752882 L8.76970042,21.2752882 C8.76970042,20.5849323 9.32934449,20.0252882 10.0197004,20.0252882 L11.2697004,20.0252882 L11.2697004,17.5252882 L2.51970042,17.5252882 C1.82934449,17.5252882 1.26970042,16.9656442 1.26970042,16.2752882 L1.26970042,11.2752882 C1.26970042,10.5849323 1.82934449,10.0252882 2.51970042,10.0252882 L22.5197004,10.0252882 C23.2100564,10.0252882 23.7697004,10.5849323 23.7697004,11.2752882 L23.7697004,16.2752882 C23.7697004,16.9656442 23.2100564,17.5252882 22.5197004,17.5252882 L13.7697004,17.5252882 L13.7697004,20.0252882 L13.7697004,20.0252882 Z M2.51970042,0.0252882349 L22.5197004,0.0252882349 C23.2100564,0.0252882349 23.7697004,0.584932298 23.7697004,1.27528823 L23.7697004,6.27528823 C23.7697004,6.96564417 23.2100564,7.52528823 22.5197004,7.52528823 L2.51970042,7.52528823 C1.82934449,7.52528823 1.26970042,6.96564417 1.26970042,6.27528823 L1.26970042,1.27528823 C1.26970042,0.584932298 1.82934449,0.0252882349 2.51970042,0.0252882349 L2.51970042,0.0252882349 Z M8.76970042,5.02528823 L10.0197004,5.02528823 L10.0197004,2.52528823 L8.76970042,2.52528823 L8.76970042,5.02528823 L8.76970042,5.02528823 Z M8.76970042,15.0252882 L10.0197004,15.0252882 L10.0197004,12.5252882 L8.76970042,12.5252882 L8.76970042,15.0252882 L8.76970042,15.0252882 Z M3.76970042,2.52528823 L3.76970042,5.02528823 L6.26970042,5.02528823 L6.26970042,2.52528823 L3.76970042,2.52528823 L3.76970042,2.52528823 Z M3.76970042,12.5252882 L3.76970042,15.0252882 L6.26970042,15.0252882 L6.26970042,12.5252882 L3.76970042,12.5252882 Z" transform="rotate(-4 289.374 -536.612)"/>
  </g>
</svg>
