<?xml version="1.0" encoding="UTF-8"?>
<svg width="122px" height="54px" viewBox="0 0 122 54" version="1.1" xmlns="http://www.w3.org/2000/svg" xmlns:xlink="http://www.w3.org/1999/xlink">
    <!-- Generator: Sketch 53.2 (72643) - https://sketchapp.com -->
    <title>events-icon</title>
    <desc>Created with Sketch.</desc>
    <g id="events-icon" stroke="none" stroke-width="1" fill="none" fill-rule="evenodd">
        <g id="Asset-3" fill-rule="nonzero">
            <path d="M73,32.19 C74.45,31.06 69.78,26.94 67.47,25.57 C64.78,23.97 61.42,24.77 57.38,25.57 C53.915537,26.2060132 50.4231458,24.6076648 48.64,21.57 C47.3,19.18 45.95,13.57 38.56,12.8 C33.7,12.28 28.83,16.24 25.5,19.91 C24.25,20.46 22.8,19.98 21.75,19.98 C20.41,19.98 17.75,19.98 16.37,22.37 C14.99,24.76 13.37,26.83 11.19,26.59 C9.01,26.35 7.63,25.59 4.94,25.59 C3.22526383,25.4798416 1.59003875,26.3263111 0.69,27.79 C0.219239822,28.4965428 -0.0217479961,29.3312687 1.09764628e-15,30.18 C-0.00635232968,30.7300759 0.0781158432,31.2774297 0.25,31.8 C0.68,33.47 4.13,36.41 6,37.52 C8.69,39.12 12.05,38.32 16.08,37.52 C19.544844,36.8809198 23.0389263,38.4800421 24.82,41.52 C26.17,43.91 27.51,49.52 34.91,50.28 C39.77,50.81 44.63,46.85 47.97,43.17 C49.21,42.63 50.67,43.11 51.71,43.11 C53.06,43.11 55.71,43.11 57.09,40.72 C58.47,38.33 60.09,36.26 62.27,36.5 C64.45,36.74 65.83,37.5 68.52,37.5 C71.21,37.5 73.23,35.91 73.23,33.5 C73.2493343,33.0518148 73.1708497,32.6047941 73,32.19 Z" id="Path" fill="#DDDDDD"></path>
            <path d="M117.28,29.22 C115.28,28.05 112.85,28.63 109.89,29.22 C107.354881,29.6894011 104.797,28.5223678 103.49,26.3 C102.49,24.55 101.49,20.46 96.1,19.88 C92.54,19.49 88.98,22.39 86.53,25.08 C85.62,25.48 84.53,25.13 83.79,25.13 C82.79,25.13 80.79,25.13 79.85,26.88 C78.91,28.63 77.67,30.15 76.05,29.98 C74.43,29.81 73.44,29.22 71.47,29.22 C69.5,29.22 68,30.39 68,32.14 C68,33.89 69.47,34.47 71.44,34.47 L110.85,34.47 C110.85,34.47 117.25,34.29 120.39,34.29 C123.53,34.29 119.25,30.39 117.28,29.22 Z" id="Path" fill="#DDDDDD"></path>
            <rect id="Rectangle" fill="#283E96" x="32.39" y="0" width="66.51" height="47" rx="5.12"></rect>
            <rect id="Rectangle" fill="#283E96" x="56.11" y="45.23" width="19.05" height="6.33" rx="1.01"></rect>
            <rect id="Rectangle" fill="#283E96" x="47.63" y="50.1" width="36.03" height="3.85" rx="1.08"></rect>
            <rect id="Rectangle" fill="#B6D0FF" x="36.89" y="4.7" width="57.49" height="37.6" rx="2.35"></rect>
            <path d="M91.13,16.69 L80,7.22 C79.7365192,6.95449379 79.3396118,6.87268169 78.9926141,7.01235371 C78.6456164,7.15202574 78.4160679,7.48599619 78.41,7.86 L78.41,13.08 L58.11,13.08 C57.6962597,13.0773393 57.2984091,13.2391497 57.0039752,13.5298329 C56.7095412,13.8205161 56.5426437,14.2162596 56.54,14.63 L56.54,20.05 C56.5426437,20.4637404 56.7095412,20.8594839 57.0039752,21.1501671 C57.2984091,21.4408503 57.6962597,21.6026607 58.11,21.6 L78.43,21.6 L78.43,26.81 C78.4320995,27.1858187 78.6601896,27.5234353 79.0080678,27.6656496 C79.3559459,27.8078639 79.7552274,27.7267201 80.02,27.46 L91.13,18 C91.3052794,17.8271168 91.4039543,17.591194 91.4039543,17.345 C91.4039543,17.098806 91.3052794,16.8628832 91.13,16.69 L91.13,16.69 Z" id="Path" fill="#000000" opacity="0.21" style="mix-blend-mode: multiply;"></path>
            <path d="M41.47,30.6 L52.58,40.08 C52.8447726,40.3467201 53.2440541,40.4278639 53.5919322,40.2856496 C53.9398104,40.1434353 54.1679005,39.8058187 54.17,39.43 L54.17,34.22 L74.48,34.22 C74.8954641,34.2253352 75.2958908,34.0647091 75.5924949,33.7737368 C75.889099,33.4827644 76.0573708,33.0854901 76.06,32.67 L76.06,27.24 C76.0547295,26.8262514 75.8852965,26.4315466 75.5889815,26.1427333 C75.2926666,25.85392 74.8937477,25.6946615 74.48,25.7 L54.17,25.7 L54.17,20.48 C54.1639321,20.1059962 53.9343836,19.7720257 53.5873859,19.6323537 C53.2403882,19.4926817 52.8434808,19.5744938 52.58,19.84 L41.47,29.31 C41.2932895,29.4780119 41.1932495,29.7111669 41.1932495,29.955 C41.1932495,30.1988331 41.2932895,30.4319881 41.47,30.6 L41.47,30.6 Z" id="Path" fill="#000000" opacity="0.21" style="mix-blend-mode: multiply;"></path>
            <path d="M89.24,15.84 L78.13,6.36 C77.8632238,6.1040456 77.4711867,6.02823731 77.128222,6.16628598 C76.7852574,6.30433465 76.5550618,6.63060137 76.54,7 L76.54,12.22 L56.22,12.22 C55.8071881,12.2146646 55.4093049,12.374237 55.1145761,12.663334 C54.8198473,12.9524311 54.652629,13.347162 54.65,13.76 L54.65,19.2 C54.652629,19.612838 54.8198473,20.0075689 55.1145761,20.296666 C55.4093049,20.585763 55.8071881,20.7453354 56.22,20.74 L76.54,20.74 L76.54,26 C76.5513094,26.3712004 76.780105,26.7009457 77.1238622,26.8414754 C77.4676195,26.9820051 77.8618903,26.9069725 78.13,26.65 L89.24,17.17 C89.4242288,16.9979085 89.5288116,16.7571026 89.5288116,16.505 C89.5288116,16.2528974 89.4242288,16.0120915 89.24,15.84 L89.24,15.84 Z" id="Path" fill="#F9D76B"></path>
            <path d="M39.58,29.75 L50.69,39.22 C50.9534808,39.4855062 51.3503882,39.5673183 51.6973859,39.4276463 C52.0443836,39.2879743 52.2739321,38.9540038 52.28,38.58 L52.28,33.36 L72.59,33.36 C73.0037477,33.3653385 73.4026666,33.20608 73.6989815,32.9172667 C73.9952965,32.6284534 74.1647295,32.2337486 74.17,31.82 L74.17,26.39 C74.1590212,25.5268234 73.4532285,24.8344318 72.59,24.84 L52.28,24.84 L52.28,19.63 C52.2700414,19.2578054 52.0390579,18.9274231 51.6929116,18.7902708 C51.3467653,18.6531185 50.9521807,18.7356342 50.69,19 L39.58,28.46 C39.4032895,28.6280119 39.3032495,28.8611669 39.3032495,29.105 C39.3032495,29.3488331 39.4032895,29.5819881 39.58,29.75 L39.58,29.75 Z" id="Path" fill="#FFFFFF"></path>
        </g>
    </g>
</svg>