<?xml version="1.0" encoding="UTF-8"?>
<svg width="103px" height="59px" viewBox="0 0 103 59" version="1.1" xmlns="http://www.w3.org/2000/svg" xmlns:xlink="http://www.w3.org/1999/xlink">
    <!-- Generator: Sketch 53.2 (72643) - https://sketchapp.com -->
    <title>events-icon</title>
    <desc>Created with Sketch.</desc>
    <g id="events-icon" stroke="none" stroke-width="1" fill="none" fill-rule="evenodd">
        <g id="Asset-3" fill-rule="nonzero">
            <path d="M73.0013525,38.4362464 C74.4513525,37.3062464 69.7813525,33.1862464 67.4713525,31.8162464 C64.7813525,30.2162464 61.4213525,31.0162464 57.3813525,31.8162464 C53.9168895,32.4522596 50.4244983,30.8539112 48.6413525,27.8162464 C47.3013525,25.4262464 45.9513525,19.8162464 38.5613525,19.0462464 C33.7013525,18.5262464 28.8313525,22.4862464 25.5013525,26.1562464 C24.2513525,26.7062464 22.8013525,26.2262464 21.7513525,26.2262464 C20.4113525,26.2262464 17.7513525,26.2262464 16.3713525,28.6162464 C14.9913525,31.0062464 13.3713525,33.0762464 11.1913525,32.8362464 C9.01135249,32.5962464 7.63135249,31.8362464 4.94135249,31.8362464 C3.22661632,31.726088 1.59139124,32.5725574 0.691352491,34.0362464 C0.220592313,34.7427891 -0.0203955048,35.577515 0.00135249127,36.4262464 C-0.00499983841,36.9763223 0.0794683345,37.523676 0.251352491,38.0462464 C0.681352491,39.7162464 4.13135249,42.6562464 6.00135249,43.7662464 C8.69135249,45.3662464 12.0513525,44.5662464 16.0813525,43.7662464 C19.5461965,43.1271662 23.0402787,44.7262885 24.8213525,47.7662464 C26.1713525,50.1562464 27.5113525,55.7662464 34.9113525,56.5262464 C39.7713525,57.0562464 44.6313525,53.0962464 47.9713525,49.4162464 C49.2113525,48.8762464 50.6713525,49.3562464 51.7113525,49.3562464 C53.0613525,49.3562464 55.7113525,49.3562464 57.0913525,46.9662464 C58.4713525,44.5762464 60.0913525,42.5062464 62.2713525,42.7462464 C64.4513525,42.9862464 65.8313525,43.7462464 68.5213525,43.7462464 C71.2113525,43.7462464 73.2313525,42.1562464 73.2313525,39.7462464 C73.2506868,39.2980611 73.1722022,38.8510405 73.0013525,38.4362464 Z" id="Path" fill="#DDDDDD"></path>
            <path d="M102.001352,25.8638212 C103.451352,24.3601297 98.7813525,18.877644 96.4713525,17.0545844 C93.7813525,14.9254637 90.4213525,15.9900241 86.3813525,17.0545844 C82.9168895,17.9009275 79.4244983,15.7740046 77.6413525,11.7317827 C76.3013525,8.55140873 74.9513525,1.08617937 67.5613525,0.0615400411 C62.7013525,-0.630424178 57.8313525,4.63914949 54.5013525,9.52282003 C53.2513525,10.2547053 51.8013525,9.61596906 50.7513525,9.61596906 C49.4113525,9.61596906 46.7513525,9.61596906 45.3713525,12.7963431 C43.9913525,15.9767171 42.3713525,18.7312669 40.1913525,18.4118988 C38.0113525,18.0925307 36.6313525,17.0811984 33.9413525,17.0811984 C32.2266163,16.9346106 30.5913912,18.0610079 29.6913525,20.0087393 C29.2205923,20.9489361 28.9796045,22.0597062 29.0013525,23.1891134 C28.9950002,23.9210996 29.0794683,24.6494635 29.2513525,25.344848 C29.6813525,27.5671177 33.1313525,31.479377 35.0013525,32.9564544 C37.6913525,35.0855751 41.0513525,34.0210148 45.0813525,32.9564544 C48.5461965,32.1060302 52.0402787,34.2339829 53.8213525,38.2792561 C55.1713525,41.4596301 56.5113525,48.9248595 63.9113525,49.9361918 C68.7713525,50.641463 73.6313525,45.3718894 76.9713525,40.4749118 C78.2113525,39.7563336 79.6713525,40.3950698 80.7113525,40.3950698 C82.0613525,40.3950698 84.7113525,40.3950698 86.0913525,37.2146958 C87.4713525,34.0343218 89.0913525,31.2797719 91.2713525,31.59914 C93.4513525,31.9185081 94.8313525,32.9298404 97.5213525,32.9298404 C100.211352,32.9298404 102.231352,30.8140268 102.231352,27.6070388 C102.250687,27.0106385 102.172202,26.4157879 102.001352,25.8638212 Z" id="Path" fill="#DDDDDD"></path>
            <rect id="Rectangle" fill="#283E96" x="17.39" y="5" width="66.51" height="47" rx="5.12"></rect>
            <rect id="Rectangle" fill="#283E96" x="41.11" y="50.23" width="19.05" height="6.33" rx="1.01"></rect>
            <rect id="Rectangle" fill="#283E96" x="32.63" y="55.1" width="36.03" height="3.85" rx="1.08"></rect>
            <rect id="Rectangle" fill="#B6D0FF" x="21.89" y="9.7" width="57.49" height="37.6" rx="2.35"></rect>
            <path d="M76.13,21.69 L65,12.22 C64.7365192,11.9544938 64.3396118,11.8726817 63.9926141,12.0123537 C63.6456164,12.1520257 63.4160679,12.4859962 63.41,12.86 L63.41,18.08 L43.11,18.08 C42.6962597,18.0773393 42.2984091,18.2391497 42.0039752,18.5298329 C41.7095412,18.8205161 41.5426437,19.2162596 41.54,19.63 L41.54,25.05 C41.5426437,25.4637404 41.7095412,25.8594839 42.0039752,26.1501671 C42.2984091,26.4408503 42.6962597,26.6026607 43.11,26.6 L63.43,26.6 L63.43,31.81 C63.4320995,32.1858187 63.6601896,32.5234353 64.0080678,32.6656496 C64.3559459,32.8078639 64.7552274,32.7267201 65.02,32.46 L76.13,23 C76.3052794,22.8271168 76.4039543,22.591194 76.4039543,22.345 C76.4039543,22.098806 76.3052794,21.8628832 76.13,21.69 L76.13,21.69 Z" id="Path" fill="#000000" opacity="0.21" style="mix-blend-mode: multiply;"></path>
            <path d="M26.47,35.6 L37.58,45.08 C37.8447726,45.3467201 38.2440541,45.4278639 38.5919322,45.2856496 C38.9398104,45.1434353 39.1679005,44.8058187 39.17,44.43 L39.17,39.22 L59.48,39.22 C59.8954641,39.2253352 60.2958908,39.0647091 60.5924949,38.7737368 C60.889099,38.4827644 61.0573708,38.0854901 61.06,37.67 L61.06,32.24 C61.0547295,31.8262514 60.8852965,31.4315466 60.5889815,31.1427333 C60.2926666,30.85392 59.8937477,30.6946615 59.48,30.7 L39.17,30.7 L39.17,25.48 C39.1639321,25.1059962 38.9343836,24.7720257 38.5873859,24.6323537 C38.2403882,24.4926817 37.8434808,24.5744938 37.58,24.84 L26.47,34.31 C26.2932895,34.4780119 26.1932495,34.7111669 26.1932495,34.955 C26.1932495,35.1988331 26.2932895,35.4319881 26.47,35.6 L26.47,35.6 Z" id="Path" fill="#000000" opacity="0.21" style="mix-blend-mode: multiply;"></path>
            <path d="M74.24,20.84 L63.13,11.36 C62.8632238,11.1040456 62.4711867,11.0282373 62.128222,11.166286 C61.7852574,11.3043347 61.5550618,11.6306014 61.54,12 L61.54,17.22 L41.22,17.22 C40.8071881,17.2146646 40.4093049,17.374237 40.1145761,17.663334 C39.8198473,17.9524311 39.652629,18.347162 39.65,18.76 L39.65,24.2 C39.652629,24.612838 39.8198473,25.0075689 40.1145761,25.296666 C40.4093049,25.585763 40.8071881,25.7453354 41.22,25.74 L61.54,25.74 L61.54,31 C61.5513094,31.3712004 61.780105,31.7009457 62.1238622,31.8414754 C62.4676195,31.9820051 62.8618903,31.9069725 63.13,31.65 L74.24,22.17 C74.4242288,21.9979085 74.5288116,21.7571026 74.5288116,21.505 C74.5288116,21.2528974 74.4242288,21.0120915 74.24,20.84 L74.24,20.84 Z" id="Path" fill="#F9D76B"></path>
            <path d="M24.58,34.75 L35.69,44.22 C35.9534808,44.4855062 36.3503882,44.5673183 36.6973859,44.4276463 C37.0443836,44.2879743 37.2739321,43.9540038 37.28,43.58 L37.28,38.36 L57.59,38.36 C58.0037477,38.3653385 58.4026666,38.20608 58.6989815,37.9172667 C58.9952965,37.6284534 59.1647295,37.2337486 59.17,36.82 L59.17,31.39 C59.1590212,30.5268234 58.4532285,29.8344318 57.59,29.84 L37.28,29.84 L37.28,24.63 C37.2700414,24.2578054 37.0390579,23.9274231 36.6929116,23.7902708 C36.3467653,23.6531185 35.9521807,23.7356342 35.69,24 L24.58,33.46 C24.4032895,33.6280119 24.3032495,33.8611669 24.3032495,34.105 C24.3032495,34.3488331 24.4032895,34.5819881 24.58,34.75 L24.58,34.75 Z" id="Path" fill="#FFFFFF"></path>
        </g>
    </g>
</svg>