<?xml version="1.0" encoding="UTF-8"?>
<svg width="94px" height="68px" viewBox="0 0 94 68" version="1.1" xmlns="http://www.w3.org/2000/svg" xmlns:xlink="http://www.w3.org/1999/xlink">
    <!-- Generator: Sketch 53.2 (72643) - https://sketchapp.com -->
    <title>id-auth-icon</title>
    <desc>Created with Sketch.</desc>
    <g id="id-auth-icon" stroke="none" stroke-width="1" fill="none" fill-rule="evenodd">
        <g id="Asset-4" transform="translate(0.000000, -1.000000)" fill-rule="nonzero">
            <path d="M91.8115137,44.4349918 C93.1538233,44.9307095 94,45.8906576 94,47.5174899 C94,47.5706845 93.9991075,47.6235227 93.9973343,47.675997 C94.0039482,47.7740193 93.9983448,47.8666292 93.9795183,47.9531455 C93.7519409,50.340462 91.6516611,51.9068362 88.8723549,51.9068362 C85.9273225,51.9068362 84.4921798,51.0349798 82.0404778,50.7644036 C79.5887757,50.4938275 77.8097968,52.8538528 76.3298059,55.4844542 C74.8498151,58.1150556 71.9346815,58.1150556 70.4397413,58.1150556 C69.0847706,57.8229917 67.6836262,57.8229917 66.3286555,58.1150556 C62.6810012,62.1736978 57.3590138,66.5329801 52.0370265,65.9467318 C43.9792984,65.0748753 42.4843581,58.926784 40.9894178,56.2961826 C39.032447,52.9589604 35.2110874,51.2058311 31.4218001,51.9068362 C26.9967768,52.7786927 23.364072,53.6655812 20.3741914,51.9068362 C19.2248458,51.2204581 17.5381504,49.90905 16.1884863,48.5650082 C14.8461767,48.0692905 14,47.1093424 14,45.4825101 C14,45.4293155 14.0008925,45.3764773 14.0026657,45.324003 C13.9960518,45.2259807 14.0016552,45.1333708 14.0204817,45.0468545 C14.2480591,42.659538 16.3483389,41.0931638 19.1276451,41.0931638 C22.0726775,41.0931638 23.5078202,41.9650202 25.9595222,42.2355964 C28.4112243,42.5061725 30.1902032,40.1461472 31.6701941,37.5155458 C33.1501849,34.8849444 36.0653185,34.8849444 37.5602587,34.8849444 C38.9152294,35.1770083 40.3163738,35.1770083 41.6713445,34.8849444 C45.3189988,30.8263022 50.6409862,26.4670199 55.9629735,27.0532682 C64.0207016,27.9251247 65.5156419,34.073216 67.0105822,36.7038174 C68.967553,40.0410396 72.7889126,41.7941689 76.5781999,41.0931638 C81.0032232,40.2213073 84.635928,39.3344188 87.6258086,41.0931638 C88.7751542,41.7795419 90.4618496,43.09095 91.8115137,44.4349918 L91.8115137,44.4349918 Z" id="Path" fill="#B6D0FF" transform="translate(54.000000, 46.500000) scale(-1, 1) translate(-54.000000, -46.500000) "></path>
            <path d="M73.9871365,21.1864956 C74.0666678,20.2795031 73.774983,19.3791217 73.1795036,18.6934699 C71.7174219,16.8128419 69.9372481,15.2062611 67.9207123,13.9474876 C65.1674184,12.3408711 61.8267552,13.1441793 57.7702355,13.9474876 C54.2892316,14.6026548 50.7734133,12.9928282 48.9780504,9.9217128 C47.6289364,7.50255453 46.2798224,1.85169629 38.8367512,1.04838801 C33.9450658,0.51284916 29.0533803,4.52015713 25.7035394,8.24122881 C24.4462019,8.78600109 22.9502455,8.30586281 21.9315268,8.30586281 C20.5824128,8.30586281 17.8750071,8.30586281 16.5167155,10.7250211 C15.1584238,13.1441793 13.5339804,15.2401676 11.3038124,15.0000985 C9.07364434,14.7600293 7.73370799,13.9474876 5.02630233,13.9474876 C3.17948355,13.815761 1.43489873,14.8135237 0.602676827,16.477447 C0.182773737,17.1572753 -0.0220512896,17.9493567 0.0153074653,18.7488704 C-0.0734334082,19.6657331 0.22649851,20.5777035 0.84129563,21.260363 C2.30896443,23.1620454 4.10225782,24.7848811 6.13679753,26.0525124 C8.84420319,27.6591289 12.221577,26.8558207 16.2780967,26.0525124 C19.7594443,25.3944984 23.2768268,27.0050411 25.0702818,30.0782872 C26.4193958,32.5066789 27.8235757,38.1483037 35.1656927,38.951612 C40.0573782,39.4871508 44.9490637,35.4798429 48.3080822,31.7587712 C49.5654197,31.2139989 51.0613761,31.6941372 52.0709172,31.6941372 C53.4292088,31.6941372 56.1366145,31.6941372 57.4857285,29.2749789 C58.8348425,26.8558207 60.5235294,24.7598324 62.7445198,24.9722012 C64.9655102,25.1845701 66.3054465,26.0525124 69.0587404,26.0525124 C71.2889085,26.0525124 73.0326613,24.944501 73.5924977,23.199383 C73.8787199,22.5687102 74.0138875,21.8792768 73.9871365,21.1864956 Z" id="Path" fill="#B6D0FF" transform="translate(37.000000, 20.000000) rotate(-180.000000) translate(-37.000000, -20.000000) "></path>
            <rect id="Rectangle" fill="#283E96" transform="translate(44.718845, 34.713470) rotate(0.760000) translate(-44.718845, -34.713470) " x="24.2188446" y="1.21346972" width="41" height="67" rx="4.69"></rect>
            <rect id="Rectangle" fill="#F37645" transform="translate(44.758939, 31.314366) rotate(0.760000) translate(-44.758939, -31.314366) " x="28.0639387" y="5.42436571" width="33.39" height="51.78" rx="2.23"></rect>
            <circle id="Oval" fill="#B6D0FF" cx="44.35" cy="62.7" r="3.5"></circle>
        </g>
        <g id="account-lock" transform="translate(31.500000, 16.500000)" fill="#000000" fill-opacity="0.2" fill-rule="nonzero">
            <path d="M26.5263158,19.1578947 L26.5263158,18.4210526 C26.5263158,16.3873684 24.8757895,14.7368421 22.8421053,14.7368421 C20.8084211,14.7368421 19.1578947,16.3873684 19.1578947,18.4210526 L19.1578947,19.1578947 C18.3473684,19.1578947 17.6842105,19.8210526 17.6842105,20.6315789 L17.6842105,26.5263158 C17.6842105,27.3368421 18.3473684,28 19.1578947,28 L26.5263158,28 C27.3368421,28 28,27.3368421 28,26.5263158 L28,20.6315789 C28,19.8210526 27.3368421,19.1578947 26.5263158,19.1578947 L26.5263158,19.1578947 Z M25.0526316,19.1578947 L20.6315789,19.1578947 L20.6315789,18.4210526 C20.6315789,17.1978947 21.6189474,16.2105263 22.8421053,16.2105263 C24.0652632,16.2105263 25.0526316,17.1978947 25.0526316,18.4210526 L25.0526316,19.1578947 L25.0526316,19.1578947 Z M5.89473684,5.89473684 C5.89473684,2.63789474 8.53263158,0 11.7894737,0 C15.0463158,0 17.6842105,2.63789474 17.6842105,5.89473684 C17.6842105,9.15157895 15.0463158,11.7894737 11.7894737,11.7894737 C8.53263158,11.7894737 5.89473684,9.15157895 5.89473684,5.89473684 L5.89473684,5.89473684 Z M14.7368421,23.5789474 L0,23.5789474 L0,20.6315789 C0,17.3747368 5.27578947,14.7368421 11.7894737,14.7368421 C13.6610526,14.7368421 15.4147368,14.9578947 16.9915789,15.3410526 C16.6821053,15.9452632 16.4315789,16.5789474 16.3136842,17.2568421 C15.3557895,18.0673684 14.7368421,19.2757895 14.7368421,20.6315789 L14.7368421,23.5789474 Z" id="Shape"></path>
        </g>
        <g id="account-lock" transform="translate(30.000000, 15.000000)" fill="#F9D76B" fill-rule="nonzero">
            <path d="M26.5263158,19.1578947 L26.5263158,18.4210526 C26.5263158,16.3873684 24.8757895,14.7368421 22.8421053,14.7368421 C20.8084211,14.7368421 19.1578947,16.3873684 19.1578947,18.4210526 L19.1578947,19.1578947 C18.3473684,19.1578947 17.6842105,19.8210526 17.6842105,20.6315789 L17.6842105,26.5263158 C17.6842105,27.3368421 18.3473684,28 19.1578947,28 L26.5263158,28 C27.3368421,28 28,27.3368421 28,26.5263158 L28,20.6315789 C28,19.8210526 27.3368421,19.1578947 26.5263158,19.1578947 L26.5263158,19.1578947 Z M25.0526316,19.1578947 L20.6315789,19.1578947 L20.6315789,18.4210526 C20.6315789,17.1978947 21.6189474,16.2105263 22.8421053,16.2105263 C24.0652632,16.2105263 25.0526316,17.1978947 25.0526316,18.4210526 L25.0526316,19.1578947 L25.0526316,19.1578947 Z M5.89473684,5.89473684 C5.89473684,2.63789474 8.53263158,0 11.7894737,0 C15.0463158,0 17.6842105,2.63789474 17.6842105,5.89473684 C17.6842105,9.15157895 15.0463158,11.7894737 11.7894737,11.7894737 C8.53263158,11.7894737 5.89473684,9.15157895 5.89473684,5.89473684 L5.89473684,5.89473684 Z M14.7368421,23.5789474 L0,23.5789474 L0,20.6315789 C0,17.3747368 5.27578947,14.7368421 11.7894737,14.7368421 C13.6610526,14.7368421 15.4147368,14.9578947 16.9915789,15.3410526 C16.6821053,15.9452632 16.4315789,16.5789474 16.3136842,17.2568421 C15.3557895,18.0673684 14.7368421,19.2757895 14.7368421,20.6315789 L14.7368421,23.5789474 Z" id="Shape"></path>
        </g>
    </g>
</svg>