<?xml version="1.0" encoding="UTF-8"?>
<svg width="92px" height="60px" viewBox="0 0 92 60" version="1.1" xmlns="http://www.w3.org/2000/svg" xmlns:xlink="http://www.w3.org/1999/xlink">
    <!-- Generator: Sketch 53.2 (72643) - https://sketchapp.com -->
    <title>introduction-icon</title>
    <desc>Created with Sketch.</desc>
    <g id="introduction-icon" stroke="none" stroke-width="1" fill="none" fill-rule="evenodd">
        <g id="Asset-1" transform="translate(-1.000000, 0.000000)" fill="#B6D0FF" fill-rule="nonzero">
            <path d="M92.29,34.42 C94.11,32.99 88.29,27.82 85.35,26.1 C81.98,24.1 77.76,25.1 72.7,26.1 C68.3456189,26.9213925 63.9442973,24.9207918 61.7,21.1 C60.02,18.1 58.33,11.1 49.05,10.1 C43,9.45 36.88,14.41 32.7,19 C31.13,19.68 29.31,19.08 27.99,19.08 C26.31,19.08 22.93,19.08 21.24,22.08 C19.55,25.08 17.52,27.68 14.74,27.38 C11.96,27.08 10.28,26.1 6.9,26.1 C3.52,26.1 1,28.1 1,31.1 C0.990336626,31.6822768 1.10987067,32.2594555 1.35,32.79 C-0.47,34.21 5.35,39.39 8.29,41.1 C11.66,43.1 15.88,42.1 20.94,41.1 C25.2943811,40.2786075 29.6957027,42.2792082 31.94,46.1 C33.63,49.1 35.31,56.1 44.59,57.1 C50.69,57.76 56.79,52.8 60.98,48.18 C62.54,47.5 64.37,48.1 65.68,48.1 C67.37,48.1 70.74,48.1 72.43,45.1 C74.12,42.1 76.15,39.5 78.93,39.8 C81.71,40.1 83.39,41.1 86.77,41.1 C90.15,41.1 92.67,39.1 92.67,36.1 C92.6691198,35.5187903 92.5393365,34.9450112 92.29,34.42 Z" id="Path"></path>
            <path d="M78.7695233,14.8054305 C79.906289,13.9546032 76.2578857,10.8813561 74.4528862,9.86183024 C72.3560145,8.67360584 69.7291642,9.26771804 66.5800161,9.86183024 C63.8761516,10.3420303 61.1467431,9.15463306 59.7517414,6.89126923 C58.7071459,5.10893262 57.6548696,0.9501472 51.8788712,0.356034997 C48.1152553,-0.0327050862 44.2748308,2.91585177 41.6863847,5.65903651 C40.7109169,6.06244603 39.5741512,5.70304482 38.7599813,5.70304482 C37.707705,5.70304482 35.6108332,5.70304482 34.5585569,7.48538143 C33.5062806,9.26771804 32.2543022,10.8153437 30.5107495,10.6319757 C28.7671968,10.4486077 27.737963,9.89850384 25.6334104,9.89850384 C23.5288578,9.89850384 22.0003689,11.0500546 22.0003689,12.8323913 C21.9941115,13.1783433 22.0675303,13.521383 22.2154327,13.8372477 C21.0863479,14.6807403 24.7270703,17.7539874 26.5320698,18.7735133 C28.6366224,19.9617377 31.2557919,19.3676255 34.4126208,18.7735133 C37.1061016,18.306818 39.81809,19.4962396 41.2024912,21.751409 C42.2547675,23.5337456 43.299363,27.692531 49.0753614,28.2866433 C52.8697007,28.6753833 56.671721,25.7268265 59.2755288,22.9836417 C60.2509966,22.5802322 61.3800814,22.9396334 62.2019322,22.9396334 C63.2465277,22.9396334 65.3510803,22.9396334 66.3956757,21.1499621 C67.4402712,19.3602908 68.6999304,17.8273346 70.4434831,18.0033678 C72.1870358,18.1794011 73.2239504,18.7368397 75.3208222,18.7368397 C77.4176939,18.7368397 78.9999488,17.5486153 78.9999488,15.8029523 C79.002301,15.4581659 78.9235559,15.1172748 78.7695233,14.8054305 Z" id="Path"></path>
        </g>
        <g id="Asset-3" transform="translate(15.000000, 6.000000)" fill-rule="nonzero">
            <rect id="Rectangle" fill="#283E96" x="0.39" y="0" width="66.51" height="47" rx="5.12"></rect>
            <rect id="Rectangle" fill="#283E96" x="24.11" y="45.23" width="19.05" height="6.33" rx="1.01"></rect>
            <rect id="Rectangle" fill="#283E96" x="15.63" y="50.1" width="36.03" height="3.85" rx="1.08"></rect>
            <rect id="Rectangle" fill="#DDDDDD" x="4.89" y="4.7" width="57.49" height="37.6" rx="2.35"></rect>
        </g>
        <path d="M50.1221947,20 C52.3578758,18.3688164 55.5407046,17.7727273 58.5,17.7727273 C60.3081818,17.7727273 62.1936364,18.0045455 63.9090909,18.5454545 C65.0681818,18.9318182 66.0727273,19.3954545 67,20.0909091 L67,42.6545455 C67,43.0409091 66.6136364,43.4272727 66.2272727,43.4272727 C66.0727273,43.4272727 65.9954545,43.4272727 65.8409091,43.35 C63.6772727,42.1909091 61.05,41.7272727 58.5,41.7272727 C55.8727273,41.7272727 52.0863636,42.7318182 50,44.0454545 C47.7590909,42.3454545 44.5136364,41.7272727 41.5,41.7272727 C39.2590909,41.7272727 36.2454545,42.4227273 34.1590909,43.4272727 C34.0045455,43.4272727 33.9272727,43.5045455 33.7727273,43.5045455 C33.3863636,43.5045455 33,43.1181818 33,42.7318182 L33,20.0909091 C35.2409091,18.3909091 38.4863636,17.7727273 41.5,17.7727273 C44.4592954,17.7727273 47.6421242,18.3688164 49.8778053,20 L50.1221947,20 Z" id="Combined-Shape" fill="#000000" fill-rule="nonzero" opacity="0.253836496"></path>
        <g id="book-open-variant" transform="translate(31.000000, 14.000000)">
            <rect id="Rectangle" fill="#FFFFFF" x="16" y="3" width="16" height="21"></rect>
            <path d="M25.5,0.772727273 C22.4863636,0.772727273 19.2409091,1.39090909 17,3.09090909 C14.7590909,1.39090909 11.5136364,0.772727273 8.5,0.772727273 C5.48636364,0.772727273 2.24090909,1.39090909 0,3.09090909 L0,25.7318182 C0,26.1181818 0.386363636,26.5045455 0.772727273,26.5045455 C0.927272727,26.5045455 1.00454545,26.4272727 1.15909091,26.4272727 C3.24545455,25.4227273 6.25909091,24.7272727 8.5,24.7272727 C11.5136364,24.7272727 14.7590909,25.3454545 17,27.0454545 C19.0863636,25.7318182 22.8727273,24.7272727 25.5,24.7272727 C28.05,24.7272727 30.6772727,25.1909091 32.8409091,26.35 C32.9954545,26.4272727 33.0727273,26.4272727 33.2272727,26.4272727 C33.6136364,26.4272727 34,26.0409091 34,25.6545455 L34,3.09090909 C33.0727273,2.39545455 32.0681818,1.93181818 30.9090909,1.54545455 C29.1936364,1.00454545 27.3081818,0.772727273 25.5,0.772727273 Z M30.9090909,22.4090909 C29.2090909,21.8681818 27.3545455,21.6363636 25.5,21.6363636 C22.8727273,21.6363636 19.0863636,22.6409091 17,23.9545455 L17,6.18181818 C19.0863636,4.86818182 22.8727273,3.86363636 25.5,3.86363636 C27.3545455,3.86363636 29.2090909,4.09545455 30.9090909,4.63636364 L30.9090909,22.4090909 Z" id="Shape" fill="#F37645" fill-rule="nonzero"></path>
        </g>
    </g>
</svg>