<?xml version="1.0" encoding="UTF-8"?>
<svg width="98px" height="70px" viewBox="0 0 98 70" version="1.1" xmlns="http://www.w3.org/2000/svg" xmlns:xlink="http://www.w3.org/1999/xlink">
    <!-- Generator: Sketch 53.2 (72643) - https://sketchapp.com -->
    <title>mms-icon</title>
    <desc>Created with Sketch.</desc>
    <g id="mms-icon" stroke="none" stroke-width="1" fill="none" fill-rule="evenodd">
        <g id="Asset-1" transform="translate(0.000000, -4.000000)" fill-rule="nonzero">
            <path d="M91.2905425,45.3777041 C93.1105425,43.9477041 87.2905425,38.7777041 84.3505425,37.0577041 C80.9805425,35.0577041 76.7605425,36.0577041 71.7005425,37.0577041 C67.3461614,37.8790966 62.9448399,35.8784959 60.7005425,32.0577041 C59.0205425,29.0577041 57.3305425,22.0577041 48.0505425,21.0577041 C42.0005425,20.4077041 35.8805425,25.3677041 31.7005425,29.9577041 C30.1305425,30.6377041 28.3105425,30.0377041 26.9905425,30.0377041 C25.3105425,30.0377041 21.9305425,30.0377041 20.2405425,33.0377041 C18.5505425,36.0377041 16.5205425,38.6377041 13.7405425,38.3377041 C10.9605425,38.0377041 9.28054253,37.0577041 5.90054253,37.0577041 C2.52054253,37.0577041 0.00054253274,39.0577041 0.00054253274,42.0577041 C-0.00912084091,42.6399808 0.110413207,43.2171595 0.350542533,43.7477041 C-1.46945747,45.1677041 4.35054253,50.3477041 7.29054253,52.0577041 C10.6605425,54.0577041 14.8805425,53.0577041 19.9405425,52.0577041 C24.2949237,51.2363115 28.6962452,53.2369122 30.9405425,57.0577041 C32.6305425,60.0577041 34.3105425,67.0577041 43.5905425,68.0577041 C49.6905425,68.7177041 55.7905425,63.7577041 59.9805425,59.1377041 C61.5405425,58.4577041 63.3705425,59.0577041 64.6805425,59.0577041 C66.3705425,59.0577041 69.7405425,59.0577041 71.4305425,56.0577041 C73.1205425,53.0577041 75.1505425,50.4577041 77.9305425,50.7577041 C80.7105425,51.0577041 82.3905425,52.0577041 85.7705425,52.0577041 C89.1505425,52.0577041 91.6705425,50.0577041 91.6705425,47.0577041 C91.6696624,46.4764944 91.539879,45.9027153 91.2905425,45.3777041 Z" id="Path" fill="#B6D0FF" transform="translate(45.835271, 44.558551) scale(-1, 1) translate(-45.835271, -44.558551) "></path>
            <path d="M96.9104803,54.7473036 C98.3904803,53.5873036 93.6404803,49.3973036 91.2904803,48.0073036 C88.5604803,46.3873036 85.1404803,47.1973036 81.0404803,48.0073036 C77.5202125,48.6619982 73.966688,47.0431259 72.1504803,43.9573036 C70.7904803,41.5273036 69.4204803,35.8573036 61.9004803,35.0473036 C57.0004803,34.5173036 52.0004803,38.5373036 48.6304803,42.2773036 C47.3604803,42.8273036 45.8804803,42.3373036 44.8204803,42.3373036 C43.4504803,42.3373036 40.7204803,42.3373036 39.3504803,44.7673036 C37.9804803,47.1973036 36.3504803,49.3073036 34.0804803,49.0573036 C31.8104803,48.8073036 30.4704803,48.0573036 27.7304803,48.0573036 C24.9904803,48.0573036 23.0004803,49.6273036 23.0004803,52.0573036 C22.9923335,52.5289673 23.0879204,52.9966603 23.2804803,53.4273036 C21.8104803,54.5773036 26.5504803,58.7673036 28.9004803,60.1573036 C31.6404803,61.7773036 35.0504803,60.9673036 39.1604803,60.1573036 C42.6672292,59.5210212 46.1980738,61.1426534 48.0004803,64.2173036 C49.3704803,66.6473036 50.7304803,72.3173036 58.2504803,73.1273036 C63.1904803,73.6573036 68.1404803,69.6373036 71.5304803,65.8973036 C72.8004803,65.3473036 74.2704803,65.8373036 75.3404803,65.8373036 C76.7004803,65.8373036 79.4404803,65.8373036 80.8004803,63.3973036 C82.1604803,60.9573036 83.8004803,58.8673036 86.0704803,59.1073036 C88.3404803,59.3473036 89.6904803,60.1073036 92.4204803,60.1073036 C95.1504803,60.1073036 97.2104803,58.4873036 97.2104803,56.1073036 C97.2135427,55.6372292 97.1110213,55.1724655 96.9104803,54.7473036 Z" id="Path" fill="#B6D0FF" transform="translate(60.105273, 54.087304) scale(-1, 1) translate(-60.105273, -54.087304) "></path>
            <g id="Group" transform="translate(51.828369, 38.596458) rotate(6.000000) translate(-51.828369, -38.596458) translate(28.328369, 3.096458)">
                <rect id="Rectangle" fill="#283E96" transform="translate(23.500000, 35.500000) rotate(-4.300000) translate(-23.500000, -35.500000) " x="3" y="2" width="41" height="67" rx="4.69"></rect>
                <rect id="Rectangle" fill="#DDDDDD" transform="translate(23.252290, 32.118634) rotate(-4.300000) translate(-23.252290, -32.118634) " x="6.55728969" y="6.22863382" width="33.39" height="51.78" rx="2.23"></rect>
                <circle id="Oval" fill="#B6D0FF" cx="25.6016306" cy="63.4335418" r="3.5"></circle>
            </g>
        </g>
        <path d="M54.51,16.34 L89.51,16.34 C90.7696638,16.3320104 91.9804792,16.826819 92.8740253,17.7147335 C93.7675714,18.602648 94.2700253,19.8103108 94.27,21.07 L94.27,41.24 C94.2700058,43.8539294 92.1539236,45.9744854 89.54,45.98 L86.27,45.98 L87.55,52.1 C87.6324421,52.464476 87.4548481,52.8380482 87.1201419,53.0042144 C86.7854357,53.1703806 86.3804944,53.0860103 86.14,52.8 L80.27,45.98 L54.51,45.98 C51.8921703,45.98 49.77,43.8578297 49.77,41.24 L49.77,21.07 C49.7755146,18.4560764 51.8960706,16.3399942 54.51,16.34 Z" id="Path" fill="#000000" fill-rule="nonzero" opacity="0.21" style="mix-blend-mode: multiply;" transform="translate(72.020000, 34.714326) scale(-1, 1) translate(-72.020000, -34.714326) "></path>
        <path d="M52.74,15 L87.74,15 C90.3461364,15.005475 92.4590094,17.113881 92.47,19.72 L92.47,39.9 C92.47,42.5178297 90.3478297,44.64 87.73,44.64 L84.47,44.64 L85.75,50.72 C85.8324421,51.084476 85.6548481,51.4580482 85.3201419,51.6242144 C84.9854357,51.7903806 84.5804944,51.7060103 84.34,51.42 L78.47,44.64 L52.74,44.64 C51.4828738,44.64 50.2772363,44.1406086 49.3883139,43.2516861 C48.4993914,42.3627637 48,41.1571262 48,39.9 L48,19.72 C48.0110128,17.1099842 50.1299609,14.9999768 52.74,15 Z" id="Path" fill="#EE5180" fill-rule="nonzero" transform="translate(70.235000, 33.354373) scale(-1, 1) translate(-70.235000, -33.354373) "></path>
        <polygon id="Path" fill="#FFFFFF" transform="translate(71.000000, 34.000000) scale(-1, 1) translate(-71.000000, -34.000000) " points="57 40 64 31 69 37 76 28 85 40"></polygon>
    </g>
</svg>