<?xml version="1.0" encoding="UTF-8"?>
<svg width="97px" height="70px" viewBox="0 0 97 70" version="1.1" xmlns="http://www.w3.org/2000/svg" xmlns:xlink="http://www.w3.org/1999/xlink">
    <!-- Generator: Sketch 53.2 (72643) - https://sketchapp.com -->
    <title>sms-icon</title>
    <desc>Created with Sketch.</desc>
    <g id="sms-icon" stroke="none" stroke-width="1" fill="none" fill-rule="evenodd">
        <g id="Asset-1" transform="translate(0.000000, -1.000000)" fill-rule="nonzero">
            <path d="M91.29,45.42 C93.11,43.99 87.29,38.82 84.35,37.1 C80.98,35.1 76.76,36.1 71.7,37.1 C67.3456189,37.9213925 62.9442973,35.9207918 60.7,32.1 C59.02,29.1 57.33,22.1 48.05,21.1 C42,20.45 35.88,25.41 31.7,30 C30.13,30.68 28.31,30.08 26.99,30.08 C25.31,30.08 21.93,30.08 20.24,33.08 C18.55,36.08 16.52,38.68 13.74,38.38 C10.96,38.08 9.28,37.1 5.9,37.1 C2.52,37.1 -2.22044605e-16,39.1 -2.22044605e-16,42.1 C-0.00966337365,42.6822768 0.109870674,43.2594555 0.35,43.79 C-1.47,45.21 4.35,50.39 7.29,52.1 C10.66,54.1 14.88,53.1 19.94,52.1 C24.2943811,51.2786075 28.6957027,53.2792082 30.94,57.1 C32.63,60.1 34.31,67.1 43.59,68.1 C49.69,68.76 55.79,63.8 59.98,59.18 C61.54,58.5 63.37,59.1 64.68,59.1 C66.37,59.1 69.74,59.1 71.43,56.1 C73.12,53.1 75.15,50.5 77.93,50.8 C80.71,51.1 82.39,52.1 85.77,52.1 C89.15,52.1 91.67,50.1 91.67,47.1 C91.6691198,46.5187903 91.5393365,45.9450112 91.29,45.42 Z" id="Path" fill="#B6D0FF"></path>
            <path d="M95.91,47.41 C97.39,46.25 92.64,42.06 90.29,40.67 C87.56,39.05 84.14,39.86 80.04,40.67 C76.5197323,41.3246946 72.9662077,39.7058223 71.15,36.62 C69.79,34.19 68.42,28.52 60.9,27.71 C56,27.18 51,31.2 47.63,34.94 C46.36,35.49 44.88,35 43.82,35 C42.45,35 39.72,35 38.35,37.43 C36.98,39.86 35.35,41.97 33.08,41.72 C30.81,41.47 29.47,40.72 26.73,40.72 C23.99,40.72 22,42.29 22,44.72 C21.9918532,45.1916636 22.0874401,45.6593567 22.28,46.09 C20.81,47.24 25.55,51.43 27.9,52.82 C30.64,54.44 34.05,53.63 38.16,52.82 C41.6667489,52.1837175 45.1975935,53.8053498 47,56.88 C48.37,59.31 49.73,64.98 57.25,65.79 C62.19,66.32 67.14,62.3 70.53,58.56 C71.8,58.01 73.27,58.5 74.34,58.5 C75.7,58.5 78.44,58.5 79.8,56.06 C81.16,53.62 82.8,51.53 85.07,51.77 C87.34,52.01 88.69,52.77 91.42,52.77 C94.15,52.77 96.21,51.15 96.21,48.77 C96.2130624,48.2999256 96.110541,47.8351619 95.91,47.41 Z" id="Path" fill="#B6D0FF"></path>
            <rect id="Rectangle" fill="#283E96" transform="translate(51.828369, 35.596458) rotate(-4.300000) translate(-51.828369, -35.596458) " x="31.3283694" y="2.09645821" width="41" height="67" rx="4.69"></rect>
            <rect id="Rectangle" fill="#DDDDDD" transform="translate(51.580659, 32.215092) rotate(-4.300000) translate(-51.580659, -32.215092) " x="34.8856591" y="6.32509203" width="33.39" height="51.78" rx="2.23"></rect>
            <circle id="Oval" fill="#B6D0FF" cx="53.93" cy="63.53" r="3.5"></circle>
            <path d="M71,16.1 C59.4,16.1 50,22.1 50,29.6 C50,33.07 52.06,36.23 55.4,38.6 L51.49,46.92 C51.3221853,47.2931308 51.4240152,47.7323826 51.7388913,47.9936132 C52.0537674,48.2548437 52.5042686,48.2738222 52.84,48.04 L61.66,41.66 C64.6806815,42.6177735 67.8311147,43.1034934 71,43.1 C82.6,43.1 92,37.1 92,29.6 C92,22.1 82.6,16.1 71,16.1 Z" id="Path" fill="#000000" opacity="0.21" style="mix-blend-mode: multiply;"></path>
            <path d="M73,14.1 C61.4,14.1 52,20.1 52,27.6 C52,31.07 54.06,34.23 57.4,36.6 L53.49,44.92 C53.3221853,45.2931308 53.4240152,45.7323826 53.7388913,45.9936132 C54.0537674,46.2548437 54.5042686,46.2738222 54.84,46.04 L63.66,39.66 C66.6806815,40.6177735 69.8311147,41.1034934 73,41.1 C84.6,41.1 94,35.1 94,27.6 C94,20.1 84.6,14.1 73,14.1 Z" id="Path" fill="#55C99A"></path>
            <circle id="Oval" fill="#FFFFFF" cx="65" cy="29.1" r="2"></circle>
            <circle id="Oval" fill="#FFFFFF" cx="73" cy="29.1" r="2"></circle>
            <circle id="Oval" fill="#FFFFFF" cx="81" cy="29.1" r="2"></circle>
        </g>
    </g>
</svg>