<svg width="99" height="54" viewBox="0 0 99 54" fill="none" xmlns="http://www.w3.org/2000/svg">
<g clip-path="url(#clip0_1_2610)">
<path d="M94.25 36.3754C92.25 35.2054 89.82 35.7954 86.86 36.3754C84.3253 36.8418 81.7691 35.6755 80.46 33.4554C79.46 31.7054 78.46 27.6154 73.07 27.0354C69.51 26.6454 65.95 29.5454 63.51 32.2454C62.6036 32.4397 61.6664 32.4397 60.76 32.2454C59.76 32.2454 57.81 32.2454 56.82 33.9954C55.83 35.7454 54.64 37.3154 53 37.1354C51.36 36.9554 50.4 36.3754 48.43 36.3754C46.46 36.3754 45 37.5454 45 39.2954C45 41.0454 46.48 41.6354 48.45 41.6354H87.85C87.85 41.6354 94.25 41.4454 97.4 41.4454C100.55 41.4454 96.22 37.5454 94.25 36.3754Z" fill="#B6D0FF"/>
<path d="M80.6167 23.8624C80.7033 22.8801 80.3855 21.905 79.7367 21.1624C78.1436 19.1256 76.2039 17.3857 74.0067 16.0224C71.0067 14.2824 67.3667 15.1524 62.9467 16.0224C59.1538 16.732 55.3229 14.9885 53.3667 11.6624C51.8967 9.04241 50.4267 2.92241 42.3167 2.05241C36.9867 1.47241 31.6567 5.81241 28.0067 9.84241C26.6367 10.4324 25.0067 9.91241 23.8967 9.91241C22.4267 9.91241 19.4767 9.91241 17.9967 12.5324C16.5167 15.1524 14.7467 17.4224 12.3167 17.1624C9.88668 16.9024 8.42668 16.0224 5.47668 16.0224C3.46438 15.8797 1.56347 16.9603 0.656679 18.7624C0.199151 19.4987 -0.0240272 20.3565 0.0166791 21.2224C-0.0800133 22.2154 0.246794 23.2031 0.916679 23.9424C2.51586 26.002 4.46984 27.7595 6.68668 29.1324C9.63668 30.8724 13.3167 30.0024 17.7367 29.1324C21.53 28.4198 25.3625 30.164 27.3167 33.4924C28.7867 36.1224 30.3167 42.2324 38.3167 43.1024C43.6467 43.6824 48.9767 39.3424 52.6367 35.3124C54.0067 34.7224 55.6367 35.2424 56.7367 35.2424C58.2167 35.2424 61.1667 35.2424 62.6367 32.6224C64.1067 30.0024 65.9467 27.7324 68.3667 27.9624C70.7867 28.1924 72.2467 29.1324 75.2467 29.1324C77.6767 29.1324 79.5767 27.9324 80.1867 26.0424C80.4985 25.3594 80.6458 24.6127 80.6167 23.8624Z" fill="#B6D0FF"/>
<path d="M80.7799 0H24.5099C21.6822 0 19.3899 2.2923 19.3899 5.12V41.88C19.3899 44.7077 21.6822 47 24.5099 47H80.7799C83.6076 47 85.8999 44.7077 85.8999 41.88V5.12C85.8999 2.2923 83.6076 0 80.7799 0Z" fill="#283E96"/>
<path d="M61.1499 45.23H44.1199C43.5621 45.23 43.1099 45.6822 43.1099 46.24V50.55C43.1099 51.1078 43.5621 51.56 44.1199 51.56H61.1499C61.7077 51.56 62.1599 51.1078 62.1599 50.55V46.24C62.1599 45.6822 61.7077 45.23 61.1499 45.23Z" fill="#283E96"/>
<path d="M69.5799 50.1001H35.7099C35.1134 50.1001 34.6299 50.5836 34.6299 51.1801V52.8701C34.6299 53.4666 35.1134 53.9501 35.7099 53.9501H69.5799C70.1763 53.9501 70.6599 53.4666 70.6599 52.8701V51.1801C70.6599 50.5836 70.1763 50.1001 69.5799 50.1001Z" fill="#283E96"/>
<path d="M79.0299 4.7002H26.2399C24.942 4.7002 23.8899 5.75233 23.8899 7.0502V39.9502C23.8899 41.2481 24.942 42.3002 26.2399 42.3002H79.0299C80.3278 42.3002 81.3799 41.2481 81.3799 39.9502V7.0502C81.3799 5.75233 80.3278 4.7002 79.0299 4.7002Z" fill="#EE5180"/>
<g opacity="0.3762">
<path d="M62.2083 25.4165C59.5166 25.4165 57.2499 27.6973 57.2499 30.3748C57.2499 34.0723 62.2083 39.5832 62.2083 39.5832C62.2083 39.5832 67.1666 34.0723 67.1666 30.3748C67.1666 27.6973 64.8999 25.4165 62.2083 25.4165ZM62.2083 32.2307C61.2166 32.2307 60.5083 31.3807 60.5083 30.5307C60.5083 29.539 61.3583 28.8307 62.2083 28.8307C63.0583 28.8307 63.9083 29.6665 63.9083 30.5307C64.0499 31.3807 63.1999 32.2307 62.2083 32.2307ZM58.5391 39.5832H45.9166C44.3583 39.5832 43.0833 38.3223 43.0833 36.7498V11.2498C43.0833 9.67734 44.3441 8.4165 45.9166 8.4165H60.0833C61.6416 8.4165 62.9166 9.67734 62.9166 11.2498V22.6257C62.6899 22.5832 62.4491 22.5832 62.2083 22.5832C61.4999 22.5832 60.7916 22.6965 60.0833 22.8948V14.0832H45.9166V33.9165H55.1816C56.0316 36.0415 57.4199 38.124 58.5391 39.5832Z" fill="black"/>
</g>
<path d="M61.2083 24.4165C58.5166 24.4165 56.2499 26.6973 56.2499 29.3748C56.2499 33.0723 61.2083 38.5832 61.2083 38.5832C61.2083 38.5832 66.1666 33.0723 66.1666 29.3748C66.1666 26.6973 63.8999 24.4165 61.2083 24.4165ZM61.2083 31.2307C60.2166 31.2307 59.5083 30.3807 59.5083 29.5307C59.5083 28.539 60.3583 27.8307 61.2083 27.8307C62.0583 27.8307 62.9083 28.6665 62.9083 29.5307C63.0499 30.3807 62.1999 31.2307 61.2083 31.2307ZM57.5391 38.5832H44.9166C43.3583 38.5832 42.0833 37.3223 42.0833 35.7498V10.2498C42.0833 8.67734 43.3441 7.4165 44.9166 7.4165H59.0833C60.6416 7.4165 61.9166 8.67734 61.9166 10.2498V21.6257C61.6899 21.5832 61.4491 21.5832 61.2083 21.5832C60.4999 21.5832 59.7916 21.6965 59.0833 21.8948V13.0832H44.9166V32.9165H54.1816C55.0316 35.0415 56.4199 37.124 57.5391 38.5832Z" fill="white"/>
</g>
<defs>
<clipPath id="clip0_1_2610">
<rect width="99" height="54" fill="white"/>
</clipPath>
</defs>
</svg>
