<?xml version="1.0" encoding="UTF-8"?>
<svg width="96px" height="68px" viewBox="0 0 96 68" version="1.1" xmlns="http://www.w3.org/2000/svg" xmlns:xlink="http://www.w3.org/1999/xlink">
    <!-- Generator: Sketch 53.2 (72643) - https://sketchapp.com -->
    <title>usertokens-icon</title>
    <desc>Created with Sketch.</desc>
    <g id="usertokens-icon" stroke="none" stroke-width="1" fill="none" fill-rule="evenodd">
        <g id="Asset-4" transform="translate(0.000000, -1.000000)" fill-rule="nonzero">
            <path d="M49.25,24.45 C47.25,23.28 44.82,23.87 41.86,24.45 C39.3252584,24.9163417 36.7690629,23.7500775 35.46,21.53 C34.46,19.78 33.46,15.69 28.07,15.11 C24.51,14.72 20.95,17.62 18.51,20.32 C17.6036289,20.5142947 16.6663711,20.5142947 15.76,20.32 C14.76,20.32 12.81,20.32 11.82,22.07 C10.83,23.82 9.64,25.39 8,25.21 C6.36,25.03 5.4,24.45 3.43,24.45 C1.46,24.45 0,25.62 0,27.37 C0,29.12 1.48,29.71 3.45,29.71 L42.85,29.71 C42.85,29.71 49.25,29.52 52.4,29.52 C55.55,29.52 51.22,25.62 49.25,24.45 Z" id="Path" fill="#B6D0FF"></path>
            <path d="M95.37,43.9 C95.4566576,42.9177078 95.1388368,41.9425755 94.49,41.2 C92.8969099,39.1632398 90.9572255,37.4232785 88.76,36.06 C85.76,34.32 82.12,35.19 77.7,36.06 C73.9070843,36.76956 70.0762346,35.0260835 68.12,31.7 C66.65,29.08 65.18,22.96 57.07,22.09 C51.74,21.51 46.41,25.85 42.76,29.88 C41.39,30.47 39.76,29.95 38.65,29.95 C37.18,29.95 34.23,29.95 32.75,32.57 C31.27,35.19 29.5,37.46 27.07,37.2 C24.64,36.94 23.18,36.06 20.23,36.06 C18.2176989,35.9173372 16.3167923,36.9979356 15.41,38.8 C14.9524719,39.5362685 14.7292938,40.3941096 14.77,41.26 C14.6733076,42.2529818 15.0001146,43.2406652 15.67,43.98 C17.2691778,46.0395626 19.2231574,47.7971283 21.44,49.17 C24.39,50.91 28.07,50.04 32.49,49.17 C36.2832903,48.4573568 40.1158443,50.2016089 42.07,53.53 C43.54,56.16 45.07,62.27 53.07,63.14 C58.4,63.72 63.73,59.38 67.39,55.35 C68.76,54.76 70.39,55.28 71.49,55.28 C72.97,55.28 75.92,55.28 77.39,52.66 C78.86,50.04 80.7,47.77 83.12,48 C85.54,48.23 87,49.17 90,49.17 C92.43,49.17 94.33,47.97 94.94,46.08 C95.2518688,45.396968 95.399148,44.6502968 95.37,43.9 Z" id="Path" fill="#B6D0FF"></path>
            <rect id="Rectangle" fill="#283E96" transform="translate(45.718845, 34.713470) rotate(0.760000) translate(-45.718845, -34.713470) " x="25.2188446" y="1.21346972" width="41" height="67" rx="4.69"></rect>
            <rect id="Rectangle" fill="#F37645" transform="translate(45.758939, 31.314366) rotate(0.760000) translate(-45.758939, -31.314366) " x="29.0639387" y="5.42436571" width="33.39" height="51.78" rx="2.23"></rect>
            <circle id="Oval" fill="#B6D0FF" cx="45.35" cy="62.7" r="3.5"></circle>
            <path d="M32.57,40.49 L49.64,27.82 C49.4799485,26.7559852 49.4799485,25.6740148 49.64,24.61 C50.2819664,20.2395164 53.4937957,16.6862788 57.7774431,15.6075699 C62.0610905,14.528861 66.5727039,16.1371798 69.2079999,19.6823826 C71.8432959,23.2275854 72.0831375,28.0112891 69.815659,31.8023034 C67.5481805,35.5933176 63.2200612,37.644836 58.85,37 C57.7848332,36.8501604 56.7492552,36.5364511 55.78,36.07 L51.11,39.54 L45.71,38.74 L44.91,44.14 L39.51,43.34 L38.71,48.75 L31.51,47.68 L32.57,40.48 M58.91,24.15 C58.6922082,25.6104211 59.3782489,27.0577223 60.6466326,27.8136758 C61.9150163,28.5696293 63.514415,28.4844442 64.6953255,27.5980395 C65.876236,26.7116348 66.4046629,25.1996501 66.0329771,23.770625 C65.6612913,22.3416 64.4631418,21.2786934 63,21.08 C61.0263457,20.8119794 59.2037826,22.1800157 58.91,24.15 L58.91,24.15 Z" id="Shape" fill="#000000" opacity="0.21" style="mix-blend-mode: multiply;"></path>
            <path d="M32.64,38.81 L49.71,26.14 C49.5498994,25.0793409 49.5498994,24.0006591 49.71,22.94 C50.591788,16.9744122 56.1423107,12.8529051 62.108011,13.7339319 C68.0737113,14.6149587 72.1959266,20.1649554 71.3156611,26.1307681 C70.4353956,32.0965807 64.8859249,36.2195042 58.92,35.34 C57.8569414,35.180697 56.822753,34.8674087 55.85,34.41 L51.18,37.87 L45.78,37.07 L45,42.48 L39.6,41.68 L38.8,47.08 L31.57,46 L32.64,38.8 M59,22.47 C58.7829043,23.9294891 59.4683823,25.3756519 60.7355844,26.1315871 C62.0027865,26.8875222 63.6009836,26.8036603 64.7821123,25.9192542 C65.9632409,25.034848 66.4936027,23.5248867 66.1249526,22.0961333 C65.7563025,20.6673799 64.5615818,19.6025281 63.1,19.4 C61.1227396,19.1260154 59.2936919,20.4955706 59,22.47 L59,22.47 Z" id="Shape" fill="#F9D76B"></path>
        </g>
    </g>
</svg>