<?xml version="1.0" encoding="UTF-8"?>
<svg width="102px" height="72px" viewBox="0 0 102 72" version="1.1" xmlns="http://www.w3.org/2000/svg" xmlns:xlink="http://www.w3.org/1999/xlink">
    <!-- Generator: Sketch 53.2 (72643) - https://sketchapp.com -->
    <title>voicemail-icon</title>
    <desc>Created with Sketch.</desc>
    <g id="voicemail-icon" stroke="none" stroke-width="1" fill="none" fill-rule="evenodd">
        <g id="Asset-2" transform="translate(0.000000, -1.000000)" fill-rule="nonzero">
            <path d="M49.25,55 C47.25,53.83 44.82,54.41 41.86,55 C39.3252584,55.4663417 36.7690629,54.3000775 35.46,52.08 C34.46,50.32 33.46,46.24 28.07,45.65 C24.51,45.27 20.95,48.17 18.51,50.86 C17.604128,51.0589484 16.665872,51.0589484 15.76,50.86 C14.76,50.86 12.81,50.86 11.82,52.61 C10.83,54.36 9.64,55.92 8,55.75 C6.36,55.58 5.42,55 3.45,55 C1.48,55 0,56.15 0,57.91 C0,59.67 1.48,60.24 3.45,60.24 L42.85,60.24 C42.85,60.24 49.25,60.05 52.4,60.05 C55.55,60.05 51.22,56.15 49.25,55 Z" id="Path" fill="#DDDDDD"></path>
            <path d="M101.44,44.31 C101.447218,43.7173968 101.349023,43.1282297 101.15,42.57 C100.78,40.72 96.83,37.34 94.69,36.07 C91.69,34.28 87.91,35.18 83.4,36.07 C79.5262178,36.7899791 75.6163311,35.0069428 73.62,31.61 C72.11,28.93 70.62,22.69 62.33,21.79 C56.88,21.21 51.44,25.64 47.71,29.79 C46.31,30.4 44.71,29.86 43.52,29.86 C42.01,29.86 39,29.86 37.52,32.54 C36.04,35.22 34.2,37.54 31.72,37.27 C29.24,37 27.72,36.11 24.72,36.11 C21.72,36.11 19.45,37.89 19.45,40.57 C19.4431076,41.0876432 19.5524607,41.6002356 19.77,42.07 C18.14,43.34 23.37,47.96 25.96,49.49 C28.96,51.27 32.73,50.38 37.25,49.49 C41.1049462,48.7760033 44.9964059,50.5401317 47,53.91 C48.5,56.59 50,62.83 58.29,63.72 C63.73,64.31 69.17,59.88 72.9,55.77 C74.3,55.16 75.9,55.69 77.1,55.69 C78.6,55.69 81.62,55.69 83.1,53.02 C84.58,50.35 86.42,48.02 88.9,48.29 C91.38,48.56 92.9,49.45 95.9,49.45 C97.9666466,49.6008555 99.9191278,48.4862812 100.84,46.63 C101.255285,45.9289319 101.463327,45.1245024 101.44,44.31 Z" id="Path" fill="#DDDDDD"></path>
            <rect id="Rectangle" fill="#283E96" transform="translate(45.975140, 36.545439) rotate(8.630000) translate(-45.975140, -36.545439) " x="25.4751399" y="3.04543909" width="41" height="67" rx="4.69"></rect>
            <rect id="Rectangle" fill="#B6D0FF" transform="translate(46.478600, 33.189258) rotate(8.630000) translate(-46.478600, -33.189258) " x="29.7836005" y="7.29925796" width="33.39" height="51.78" rx="2.23"></rect>
            <circle id="Oval" fill="#B6D0FF" cx="41.76" cy="64.23" r="3.5"></circle>
            <path d="M11.24,17.62 L46.24,17.62 C47.4996638,17.6120104 48.7104792,18.106819 49.6040253,18.9947335 C50.4975714,19.882648 51.0000253,21.0903108 51,22.35 L51,42.52 C51.0000058,45.1339294 48.8839236,47.2544854 46.27,47.26 L43,47.26 L44.28,53.38 C44.3624421,53.744476 44.1848481,54.1180482 43.8501419,54.2842144 C43.5154357,54.4503806 43.1104944,54.3660103 42.87,54.08 L37,47.26 L11.24,47.26 C8.62217029,47.26 6.5,45.1378297 6.5,42.52 L6.5,22.35 C6.50551462,19.7360764 8.62607056,17.6199942 11.24,17.62 Z" id="Path" fill="#000000" opacity="0.21" style="mix-blend-mode: multiply;"></path>
            <path d="M9.47,16.28 L44.47,16.28 C47.0761364,16.285475 49.1890094,18.393881 49.2,21 L49.2,41.18 C49.2,43.7978297 47.0778297,45.92 44.46,45.92 L41.2,45.92 L42.48,52 C42.5624421,52.364476 42.3848481,52.7380482 42.0501419,52.9042144 C41.7154357,53.0703806 41.3104944,52.9860103 41.07,52.7 L35.2,45.92 L9.47,45.92 C8.21287384,45.92 7.00723629,45.4206086 6.11831386,44.5316861 C5.22939142,43.6427637 4.73,42.4371262 4.73,41.18 L4.73,21 C4.74101282,18.3899842 6.85996092,16.2799768 9.47,16.28 Z" id="Path" fill="#F37645"></path>
            <path d="M42.57,31.88 C42.5216278,28.8425045 40.5195901,26.1829275 37.613986,25.2962576 C34.708382,24.4095877 31.5625385,25.4982447 29.8264985,27.9912115 C28.0904585,30.4841783 28.1605464,33.8123299 30,36.23 L23.89,36.23 C25.9058747,33.6693125 25.8879253,30.0562261 23.8467081,27.5156939 C21.805491,24.9751617 18.2810848,24.1793745 15.3462877,25.5963561 C12.4114905,27.0133377 10.8428103,30.2681739 11.56283,33.4466079 C12.2828497,36.6250419 15.1010618,38.8861029 18.36,38.9 L18.36,38.9 L35.67,38.9 L35.67,38.9 C39.5046858,38.84523 42.5813485,35.7150601 42.57,31.88 L42.57,31.88 Z M14.07,31.88 C14.0700047,30.1318141 15.1236242,28.5559564 16.7391256,27.8878926 C18.354627,27.2198289 20.213518,27.5912663 21.4482389,28.828852 C22.6829598,30.0664376 23.0500882,31.9261845 22.3782823,33.5401333 C21.7064765,35.1540821 20.1281812,36.2040467 18.38,36.2 C15.9980361,36.1944862 14.0699936,34.2619703 14.07,31.88 L14.07,31.88 Z M35.54,36.2 C33.7927231,36.2 32.2174943,35.1474658 31.5488404,33.5331924 C30.8801865,31.9189191 31.2497874,30.06081 32.4852987,28.8252987 C33.72081,27.5897874 35.5789191,27.2201865 37.1931924,27.8888404 C38.8074658,28.5574943 39.86,30.1327231 39.86,31.88 C39.86,34.2658701 37.9258701,36.2 35.54,36.2 L35.54,36.2 Z" id="Shape" fill="#FFFFFF"></path>
        </g>
    </g>
</svg>