<?xml version="1.0" encoding="UTF-8"?>
<svg width="512px" height="264px" viewBox="0 0 512 264" version="1.1" xmlns="http://www.w3.org/2000/svg" xmlns:xlink="http://www.w3.org/1999/xlink">
    <!-- Generator: Sketch 53.2 (72643) - https://sketchapp.com -->
    <title>logo-brand-no-font</title>
    <desc>Created with Sketch.</desc>
    <g id="logo-brand-no-font" stroke="none" stroke-width="1" fill="none" fill-rule="evenodd">
        <path d="M380.342857,263.529412 C385.936134,263.529412 391.206723,261.378151 395.078992,257.398319 L505.546218,146.931092 C509.52605,142.951261 511.677311,137.788235 511.677311,132.194958 C511.677311,126.601681 509.52605,121.331092 505.546218,117.458824 L395.078992,6.88403361 C391.09916,2.90420168 385.936134,0.752941176 380.342857,0.752941176 C374.74958,0.752941176 369.478992,2.90420168 365.606723,6.88403361 L318.171429,54.3193277 L270.736134,6.88403361 C266.756303,2.90420168 261.593277,0.752941176 256,0.752941176 C250.406723,0.752941176 245.136134,2.90420168 241.263866,6.88403361 L193.828571,54.3193277 L146.285714,6.88403361 C142.305882,2.90420168 137.142857,0.752941176 131.54958,0.752941176 C125.956303,0.752941176 120.685714,2.90420168 116.813445,6.88403361 L6.34621849,117.351261 C-1.82857143,125.52605 -1.82857143,138.756303 6.34621849,146.823529 L116.813445,257.290756 C120.793277,261.270588 125.956303,263.421849 131.54958,263.421849 C137.142857,263.421849 142.413445,261.270588 146.285714,257.290756 L193.721008,209.855462 L241.156303,257.290756 C245.136134,261.270588 250.29916,263.421849 255.892437,263.421849 C261.485714,263.421849 266.756303,261.270588 270.628571,257.290756 L318.063866,209.855462 L365.49916,257.290756 C369.478992,261.378151 374.74958,263.529412 380.342857,263.529412 Z M136.497479,247.610084 C133.915966,250.191597 129.290756,250.191597 126.709244,247.610084 L16.1344538,137.035294 C14.8436975,135.744538 14.0907563,134.023529 14.0907563,132.087395 C14.0907563,130.258824 14.8436975,128.430252 16.1344538,127.139496 L126.601681,16.6722689 C127.892437,15.3815126 129.613445,14.6285714 131.54958,14.6285714 C133.378151,14.6285714 135.206723,15.3815126 136.497479,16.6722689 L183.932773,64.107563 L130.689076,117.351261 C126.709244,121.331092 124.557983,126.494118 124.557983,132.087395 C124.557983,137.680672 126.709244,142.951261 130.689076,146.823529 L183.932773,200.067227 L136.497479,247.610084 Z M325.270588,168.336134 C325.270588,179.522689 316.235294,188.557983 305.048739,188.557983 L286.655462,188.557983 C282.890756,188.557983 279.878992,185.546218 279.878992,181.781513 C279.878992,178.016807 282.890756,175.005042 286.655462,175.005042 L286.655462,175.005042 L305.048739,175.005042 C308.813445,175.005042 311.82521,171.993277 311.82521,168.228571 L311.82521,132.62521 L311.82521,132.62521 C311.82521,128.860504 314.836975,125.848739 318.601681,125.848739 C322.366387,125.848739 325.378151,128.860504 325.378151,132.62521 L325.378151,168.336134 L325.270588,168.336134 Z M318.494118,89.1697479 L318.494118,89.1697479 L279.556303,89.1697479 C275.791597,89.1697479 272.779832,92.1815126 272.779832,95.9462185 L272.779832,101.32437 L272.779832,101.32437 L272.779832,168.336134 C272.779832,179.522689 263.744538,188.557983 252.557983,188.557983 L243.092437,188.557983 C237.929412,188.557983 233.196639,186.621849 229.647059,183.394958 C226.097479,186.621849 221.364706,188.557983 216.201681,188.557983 L206.736134,188.557983 C195.54958,188.557983 186.514286,179.522689 186.514286,168.336134 L186.514286,82.3932773 C186.514286,78.6285714 189.52605,75.6168067 193.290756,75.6168067 C197.055462,75.6168067 200.067227,78.6285714 200.067227,82.3932773 L200.067227,82.3932773 L200.067227,168.336134 C200.067227,172.10084 203.078992,175.112605 206.843697,175.112605 L216.309244,175.112605 C220.07395,175.112605 223.085714,172.10084 223.085714,168.336134 L223.085714,82.3932773 L223.085714,82.3932773 C223.085714,78.6285714 226.097479,75.6168067 229.862185,75.6168067 C233.626891,75.6168067 236.638655,78.6285714 236.638655,82.3932773 L236.638655,82.3932773 L236.638655,168.336134 C236.638655,172.10084 239.65042,175.112605 243.415126,175.112605 L252.880672,175.112605 C256.645378,175.112605 259.657143,172.10084 259.657143,168.336134 L259.657143,100.356303 L259.657143,100.356303 L259.657143,95.8386555 C259.657143,84.6521008 268.692437,75.6168067 279.878992,75.6168067 L318.816807,75.6168067 C322.581513,75.6168067 325.593277,78.6285714 325.593277,82.3932773 C325.270588,86.1579832 322.258824,89.1697479 318.494118,89.1697479 Z M381.203361,117.351261 L327.959664,64.107563 L375.394958,16.6722689 C376.685714,15.3815126 378.406723,14.6285714 380.342857,14.6285714 C382.278992,14.6285714 384,15.3815126 385.290756,16.6722689 L495.757983,127.139496 C497.048739,128.430252 497.801681,130.151261 497.801681,132.087395 C497.801681,133.915966 497.048739,135.744538 495.757983,137.035294 L385.290756,247.610084 C382.709244,250.191597 378.084034,250.191597 375.502521,247.610084 L328.067227,200.17479 L381.310924,146.931092 C389.378151,138.756303 389.378151,125.52605 381.203361,117.351261 Z" id="Shape" fill="#009DA5" fill-rule="nonzero"></path>
    </g>
</svg>