<?xml version="1.0" encoding="UTF-8"?>
<svg width="512px" height="512px" viewBox="0 0 512 512" version="1.1" xmlns="http://www.w3.org/2000/svg" xmlns:xlink="http://www.w3.org/1999/xlink">
    <!-- Generator: Sketch 53.2 (72643) - https://sketchapp.com -->
    <title>logo-brand-square</title>
    <desc>Created with Sketch.</desc>
    <g id="logo-brand-square" stroke="none" stroke-width="1" fill="none" fill-rule="evenodd">
        <path d="M281.706147,19.6653188 L492.250261,230.209433 C506.470686,244.429858 506.470686,267.485722 492.250261,281.706147 L281.706147,492.250261 C267.485722,506.470686 244.429858,506.470686 230.209433,492.250261 L19.6653188,281.706147 C5.44489375,267.485722 5.44489375,244.429858 19.6653188,230.209433 L230.209433,19.6653188 C244.429858,5.44489375 267.485722,5.44489375 281.706147,19.6653188 Z" id="Rectangle" fill="#009DA5"></path>
        <g id="green" transform="translate(124.000000, 150.000000)" fill="#FFFFFF" fill-rule="nonzero">
            <path d="M261.786154,174.632075 C261.786154,195.628302 244.792308,212.586792 223.752308,212.586792 L189.157692,212.586792 C182.076923,212.586792 176.412308,206.933962 176.412308,199.867925 C176.412308,192.801887 182.076923,187.149057 189.157692,187.149057 L189.157692,187.149057 L223.752308,187.149057 C230.833077,187.149057 236.497692,181.496226 236.497692,174.430189 L236.497692,107.60566 L236.497692,107.60566 C236.497692,100.539623 242.162308,94.8867925 249.243077,94.8867925 C256.323846,94.8867925 261.988462,100.539623 261.988462,107.60566 L261.988462,174.632075 L261.786154,174.632075 Z M249.040769,26.0433962 L249.040769,26.0433962 L175.805385,26.0433962 C168.724615,26.0433962 163.06,31.6962264 163.06,38.7622642 L163.06,48.8566038 L163.06,48.8566038 L163.06,174.632075 C163.06,195.628302 146.066154,212.586792 125.026154,212.586792 L107.223077,212.586792 C97.5123077,212.586792 88.6107692,208.95283 81.9346154,202.896226 C75.2584615,208.95283 66.3569231,212.586792 56.6461538,212.586792 L38.8430769,212.586792 C17.8030769,212.586792 0.809230769,195.628302 0.809230769,174.632075 L0.809230769,13.3245283 C0.809230769,6.25849057 6.47384615,0.605660377 13.5546154,0.605660377 C20.6353846,0.605660377 26.3,6.25849057 26.3,13.3245283 L26.3,13.3245283 L26.3,174.632075 C26.3,181.698113 31.9646154,187.350943 39.0453846,187.350943 L56.8484615,187.350943 C63.9292308,187.350943 69.5938462,181.698113 69.5938462,174.632075 L69.5938462,13.3245283 L69.5938462,13.3245283 C69.5938462,6.25849057 75.2584615,0.605660377 82.3392308,0.605660377 C89.42,0.605660377 95.0846154,6.25849057 95.0846154,13.3245283 L95.0846154,13.3245283 L95.0846154,174.632075 C95.0846154,181.698113 100.749231,187.350943 107.83,187.350943 L125.633077,187.350943 C132.713846,187.350943 138.378462,181.698113 138.378462,174.632075 L138.378462,47.0396226 L138.378462,47.0396226 L138.378462,38.5603774 C138.378462,17.5641509 155.372308,0.605660377 176.412308,0.605660377 L249.647692,0.605660377 C256.728462,0.605660377 262.393077,6.25849057 262.393077,13.3245283 C261.786154,20.390566 256.121538,26.0433962 249.040769,26.0433962 Z" id="Shape"></path>
        </g>
    </g>
</svg>