<svg id="e7f521cf-93a2-4031-b792-07796444eab3" data-name="Layer 1" xmlns="http://www.w3.org/2000/svg" xmlns:xlink="http://www.w3.org/1999/xlink" viewBox="0 0 113.39 92.22"><defs><style>.eb645fc6-0a27-4a02-a279-88f7f1fde601{fill:url(#eb7d4889-f961-4415-872e-611f85c00df9);}.fcdb2636-5b1a-44de-9b05-304a404c4673{fill:#221f20;}</style><linearGradient id="eb7d4889-f961-4415-872e-611f85c00df9" x1="260.86" y1="377.02" x2="341.7" y2="377.02" gradientUnits="userSpaceOnUse"><stop offset="0" stop-color="#009da5"/><stop offset="1" stop-color="#2a4292"/></linearGradient></defs><path class="eb645fc6-0a27-4a02-a279-88f7f1fde601" d="M341.22,353.94a3.54,3.54,0,0,0-3.06-1.77H313.55a3.54,3.54,0,0,0-3.06,1.77L288.92,391.3l-18.41-32.13h16.43l7.7,13.46,4.22-6.88-6.8-11.87a3.53,3.53,0,0,0-3.07-1.79H264.4a3.57,3.57,0,0,0-3.07,1.77,3.53,3.53,0,0,0,0,3.53l24.5,42.77a3.54,3.54,0,0,0,3.07,1.78h0a3.53,3.53,0,0,0,3.07-1.77l23.63-40.92H332L313.49,391.3l-5.75-10-4.22,6.88,6.88,12a3.53,3.53,0,0,0,3.06,1.78h0a3.54,3.54,0,0,0,3.06-1.76l24.69-42.69A3.52,3.52,0,0,0,341.22,353.94Z" transform="translate(-243.78 -352.09)"/><path class="fcdb2636-5b1a-44de-9b05-304a404c4673" d="M243.78,418.65l.48-.66h3.55L251,433.35h.37L255.29,418h4.9l3.89,15.36h.36L267.67,418h3.56l.48.66-4.07,18.4h-6.43l-3.48-14.3-3.45,14.3h-6.43Z" transform="translate(-243.78 -352.09)"/><path class="fcdb2636-5b1a-44de-9b05-304a404c4673" d="M274.86,431.32v-7.59c0-3.82,1.92-5.74,5.74-5.74h10.46v20.59c0,3.82-1.92,5.74-5.74,5.74h-7l-1.89-1.42v-2.29h8.68a1.47,1.47,0,0,0,1.67-1.67v-1.89H280.6C276.78,437.05,274.86,435.14,274.86,431.32Zm4.25.36a1.47,1.47,0,0,0,1.67,1.67h6V421.66h-6a1.5,1.5,0,0,0-1.67,1.71Z" transform="translate(-243.78 -352.09)"/><path class="fcdb2636-5b1a-44de-9b05-304a404c4673" d="M296.25,431.32V412h4.25v6H307v3.67H300.5v10a1.47,1.47,0,0,0,1.67,1.67h5.15v2.29l-1.88,1.41H302Q296.25,437.05,296.25,431.32Z" transform="translate(-243.78 -352.09)"/><path class="fcdb2636-5b1a-44de-9b05-304a404c4673" d="M309.46,418.65l.48-.66h3.55l3.24,15.36h.36L321,418h4.91l3.88,15.36h.36L333.36,418h3.55l.48.66-4.07,18.4h-6.43l-3.48-14.3L320,437.05h-6.43Z" transform="translate(-243.78 -352.09)"/><path class="fcdb2636-5b1a-44de-9b05-304a404c4673" d="M340.65,431.32v-7.59c0-3.82,1.92-5.74,5.74-5.74h5.08c3.8,0,5.7,1.92,5.7,5.74v7.59q0,5.73-5.7,5.73h-5.08C342.57,437.05,340.65,435.14,340.65,431.32Zm4.25.36a1.47,1.47,0,0,0,1.67,1.67h4.69a1.49,1.49,0,0,0,1.7-1.67v-8.31a1.51,1.51,0,0,0-1.7-1.71h-4.69a1.5,1.5,0,0,0-1.67,1.71Z" transform="translate(-243.78 -352.09)"/></svg>