<?xml version="1.0" encoding="UTF-8"?>
<svg width="102px" height="102px" viewBox="0 0 102 102" version="1.1" xmlns="http://www.w3.org/2000/svg" xmlns:xlink="http://www.w3.org/1999/xlink">
    <title>wgtwo-symbol-white-rounded-background</title>
    <defs>
        <linearGradient x1="100%" y1="50%" x2="0%" y2="50%" id="linearGradient-1">
            <stop stop-color="#009DA5" offset="0%"></stop>
            <stop stop-color="#283E96" offset="100%"></stop>
        </linearGradient>
    </defs>
    <g id="Page-1" stroke="none" stroke-width="1" fill="none" fill-rule="evenodd">
        <g id="wgtwo-symbol-white-rounded-background">
            <rect id="Rectangle" fill="url(#linearGradient-1)" x="0" y="0" width="102" height="102" rx="10"></rect>
            <path d="M91.3629303,27.85 C90.7315949,26.7564911 89.5656029,26.0820448 88.3029303,26.08 L63.6929303,26.08 C62.4302577,26.0820448 61.2642658,26.7564911 60.6329303,27.85 L39.0629303,65.21 L20.6529303,33.08 L37.0829303,33.08 L44.7829303,46.54 L49.0029303,39.66 L42.2029303,27.79 C41.5764549,26.6841742 40.4038835,26 39.1329303,26 L14.5429303,26 C13.2783314,26.0046106 12.1105391,26.677898 11.4729303,27.77 C10.8423566,28.8621858 10.8423566,30.2078142 11.4729303,31.3 L35.9729303,74.07 C36.6035039,75.1704521 37.7746174,75.8494691 39.0429303,75.85 L39.0429303,75.85 C40.3097293,75.8536033 41.4813278,75.1781215 42.1129303,74.08 L65.7429303,33.16 L82.1429303,33.16 L63.6329303,65.21 L57.8829303,55.21 L53.6629303,62.09 L60.5429303,74.09 C61.1702016,75.1888687 62.3376329,75.8679628 63.6029303,75.87 L63.6029303,75.87 C64.8635455,75.87 66.0290617,75.199661 66.6629303,74.11 L91.3529303,31.42 C92.0042349,30.3200904 92.0080628,28.9535411 91.3629303,27.85 L91.3629303,27.85 Z" id="Path" fill="#FFFFFF" fill-rule="nonzero"></path>
        </g>
    </g>
</svg>
